<?xml version="1.0" encoding="UTF-8" ?>
<svg
        xmlns="http://www.w3.org/2000/svg"
        viewBox="0 0 100 100"
        font-family="'Times New Roman', '宋体', serif"
        font-size="5">

    <!-- 模板 -->
    <defs>
        <!-- 网格参考线 -->
        <g id="reference-lines">
            <g stroke-width="0.2" stroke-opacity="0.5">
                <line x1="3" y1="10" x2="97" y2="10" stroke="#000"/>
                <line x1="3" y1="20" x2="97" y2="20" stroke="#000"/>
                <line x1="3" y1="30" x2="97" y2="30" stroke="#000"/>
                <line x1="3" y1="40" x2="97" y2="40" stroke="#000"/>
                <line x1="3" y1="50" x2="97" y2="50" stroke="#000"/>
                <line x1="3" y1="60" x2="97" y2="60" stroke="#000"/>
                <line x1="3" y1="70" x2="97" y2="70" stroke="#000"/>
                <line x1="3" y1="80" x2="97" y2="80" stroke="#000"/>
                <line x1="3" y1="90" x2="97" y2="90" stroke="#000"/>

                <line x1="10" y1="3" x2="10" y2="97" stroke="#000"/>
                <line x1="20" y1="3" x2="20" y2="97" stroke="#000"/>
                <line x1="30" y1="3" x2="30" y2="97" stroke="#000"/>
                <line x1="40" y1="3" x2="40" y2="97" stroke="#000"/>
                <line x1="50" y1="3" x2="50" y2="97" stroke="#000"/>
                <line x1="60" y1="3" x2="60" y2="97" stroke="#000"/>
                <line x1="70" y1="3" x2="70" y2="97" stroke="#000"/>
                <line x1="80" y1="3" x2="80" y2="97" stroke="#000"/>
                <line x1="90" y1="3" x2="90" y2="97" stroke="#000"/>
            </g>
            <text font-size="3" fill-opacity="0.5">
                <tspan x="10" y="2.5" text-anchor="middle">10</tspan>
                <tspan x="20" y="2.5" text-anchor="middle">20</tspan>
                <tspan x="30" y="2.5" text-anchor="middle">30</tspan>
                <tspan x="40" y="2.5" text-anchor="middle">40</tspan>
                <tspan x="50" y="2.5" text-anchor="middle">50</tspan>
                <tspan x="60" y="2.5" text-anchor="middle">60</tspan>
                <tspan x="70" y="2.5" text-anchor="middle">70</tspan>
                <tspan x="80" y="2.5" text-anchor="middle">80</tspan>
                <tspan x="90" y="2.5" text-anchor="middle">90</tspan>

                <tspan x="10" y="99.5" text-anchor="middle">10</tspan>
                <tspan x="20" y="99.5" text-anchor="middle">20</tspan>
                <tspan x="30" y="99.5" text-anchor="middle">30</tspan>
                <tspan x="40" y="99.5" text-anchor="middle">40</tspan>
                <tspan x="50" y="99.5" text-anchor="middle">50</tspan>
                <tspan x="60" y="99.5" text-anchor="middle">60</tspan>
                <tspan x="70" y="99.5" text-anchor="middle">70</tspan>
                <tspan x="80" y="99.5" text-anchor="middle">80</tspan>
                <tspan x="90" y="99.5" text-anchor="middle">90</tspan>

                <tspan x="0.1" y="11" text-anchor="start">10</tspan>
                <tspan x="0.1" y="21" text-anchor="start">20</tspan>
                <tspan x="0.1" y="31" text-anchor="start">30</tspan>
                <tspan x="0.1" y="41" text-anchor="start">40</tspan>
                <tspan x="0.1" y="51" text-anchor="start">50</tspan>
                <tspan x="0.1" y="61" text-anchor="start">60</tspan>
                <tspan x="0.1" y="71" text-anchor="start">70</tspan>
                <tspan x="0.1" y="81" text-anchor="start">80</tspan>
                <tspan x="0.1" y="91" text-anchor="start">90</tspan>

                <tspan x="100" y="11" text-anchor="end">10</tspan>
                <tspan x="100" y="21" text-anchor="end">20</tspan>
                <tspan x="100" y="31" text-anchor="end">30</tspan>
                <tspan x="100" y="41" text-anchor="end">40</tspan>
                <tspan x="100" y="51" text-anchor="end">50</tspan>
                <tspan x="100" y="61" text-anchor="end">60</tspan>
                <tspan x="100" y="71" text-anchor="end">70</tspan>
                <tspan x="100" y="81" text-anchor="end">80</tspan>
                <tspan x="100" y="91" text-anchor="end">90</tspan>
            </text>
            <circle cx="50" cy="50" r="1" fill-opacity="0.5"/>
        </g>
        <!-- 其他模板内容 -->
    </defs>

    <line x1="10" y1="80" x2="90" y2="80" stroke="#fff" stroke-width="1.5"/>

    <path d="M20 80 L20 50 L 50 20 L80 50 L80 80 Z" stroke-width="0" fill="#fff"/>

    <!-- 参考线：原点、十字线 -->
<!--    <use href="#reference-lines" />-->
</svg>