<?xml version="1.0" encoding="UTF-8" ?>
<svg xmlns="http://www.w3.org/2000/svg" viewBox="0 0 100 100" stroke-width="0.2"
    font-family="'Times New Roman', '宋体', serif" font-size="3">

    <g stroke="white" fill="white">
        <circle cx="50" cy="50" r="45" fill="none" stroke-width="4"/>

        <line x1="50" y1="6" x2="50" y2="15" stroke-width="3"/>
        <line x1="50" y1="6" x2="50" y2="15" stroke-width="3" transform="rotate(90 50 50)"/>
        <line x1="50" y1="6" x2="50" y2="15" stroke-width="3" transform="rotate(180 50 50)"/>
        <line x1="50" y1="6" x2="50" y2="15" stroke-width="3" transform="rotate(-90 50 50)"/>

        <line x1="50" y1="6" x2="50" y2="12" stroke-width="2" transform="rotate(30 50 50)"/>
        <line x1="50" y1="6" x2="50" y2="12" stroke-width="2" transform="rotate(60 50 50)"/>
        <line x1="50" y1="6" x2="50" y2="12" stroke-width="2" transform="rotate(120 50 50)"/>
        <line x1="50" y1="6" x2="50" y2="12" stroke-width="2" transform="rotate(150 50 50)"/>

        <line x1="50" y1="6" x2="50" y2="12" stroke-width="2" transform="rotate(-30 50 50)"/>
        <line x1="50" y1="6" x2="50" y2="12" stroke-width="2" transform="rotate(-60 50 50)"/>
        <line x1="50" y1="6" x2="50" y2="12" stroke-width="2" transform="rotate(-120 50 50)"/>
        <line x1="50" y1="6" x2="50" y2="12" stroke-width="2" transform="rotate(-150 50 50)"/>

        <circle cx="50" cy="50" r="5" stroke="none"/>
        <line x1="50" y1="20" x2="50" y2="50" stroke-width="1.5"/>
        <line x1="25" y1="50" x2="50" y2="50" stroke-width="3"/>
    </g>
</svg>